<svg width="193" height="70" viewBox="0 0 193 70" fill="none" xmlns="http://www.w3.org/2000/svg">
<rect width="193" height="70" fill="#4EEAC5"/>
<path d="M10.7 35C10.7 33.6267 11.0067 32.4 11.62 31.32C12.2467 30.2267 13.0933 29.38 14.16 28.78C15.24 28.1667 16.4467 27.86 17.78 27.86C19.34 27.86 20.7067 28.26 21.88 29.06C23.0533 29.86 23.8733 30.9667 24.34 32.38H21.12C20.8 31.7133 20.3467 31.2133 19.76 30.88C19.1867 30.5467 18.52 30.38 17.76 30.38C16.9467 30.38 16.22 30.5733 15.58 30.96C14.9533 31.3333 14.46 31.8667 14.1 32.56C13.7533 33.2533 13.58 34.0667 13.58 35C13.58 35.92 13.7533 36.7333 14.1 37.44C14.46 38.1333 14.9533 38.6733 15.58 39.06C16.22 39.4333 16.9467 39.62 17.76 39.62C18.52 39.62 19.1867 39.4533 19.76 39.12C20.3467 38.7733 20.8 38.2667 21.12 37.6H24.34C23.8733 39.0267 23.0533 40.14 21.88 40.94C20.72 41.7267 19.3533 42.12 17.78 42.12C16.4467 42.12 15.24 41.82 14.16 41.22C13.0933 40.6067 12.2467 39.76 11.62 38.68C11.0067 37.6 10.7 36.3733 10.7 35ZM31.6516 42.18C30.5849 42.18 29.6249 41.9467 28.7716 41.48C27.9182 41 27.2449 40.3267 26.7516 39.46C26.2716 38.5933 26.0316 37.5933 26.0316 36.46C26.0316 35.3267 26.2782 34.3267 26.7716 33.46C27.2782 32.5933 27.9649 31.9267 28.8316 31.46C29.6982 30.98 30.6649 30.74 31.7316 30.74C32.7982 30.74 33.7649 30.98 34.6316 31.46C35.4982 31.9267 36.1782 32.5933 36.6716 33.46C37.1782 34.3267 37.4316 35.3267 37.4316 36.46C37.4316 37.5933 37.1716 38.5933 36.6516 39.46C36.1449 40.3267 35.4516 41 34.5716 41.48C33.7049 41.9467 32.7316 42.18 31.6516 42.18ZM31.6516 39.74C32.1582 39.74 32.6316 39.62 33.0716 39.38C33.5249 39.1267 33.8849 38.7533 34.1516 38.26C34.4182 37.7667 34.5516 37.1667 34.5516 36.46C34.5516 35.4067 34.2716 34.6 33.7116 34.04C33.1649 33.4667 32.4916 33.18 31.6916 33.18C30.8916 33.18 30.2182 33.4667 29.6716 34.04C29.1382 34.6 28.8716 35.4067 28.8716 36.46C28.8716 37.5133 29.1316 38.3267 29.6516 38.9C30.1849 39.46 30.8516 39.74 31.6516 39.74ZM49.9455 30.92V42H47.1255V40.6C46.7655 41.08 46.2921 41.46 45.7055 41.74C45.1321 42.0067 44.5055 42.14 43.8255 42.14C42.9588 42.14 42.1921 41.96 41.5255 41.6C40.8588 41.2267 40.3321 40.6867 39.9455 39.98C39.5721 39.26 39.3855 38.4067 39.3855 37.42V30.92H42.1855V37.02C42.1855 37.9 42.4055 38.58 42.8455 39.06C43.2855 39.5267 43.8855 39.76 44.6455 39.76C45.4188 39.76 46.0255 39.5267 46.4655 39.06C46.9055 38.58 47.1255 37.9 47.1255 37.02V30.92H49.9455ZM55.5081 32.64C55.8681 32.0533 56.3348 31.5933 56.9081 31.26C57.4948 30.9267 58.1615 30.76 58.9081 30.76V33.7H58.1681C57.2881 33.7 56.6215 33.9067 56.1681 34.32C55.7281 34.7333 55.5081 35.4533 55.5081 36.48V42H52.7081V30.92H55.5081V32.64ZM65.0341 42.18C64.1274 42.18 63.3141 42.02 62.5941 41.7C61.8741 41.3667 61.3007 40.92 60.8741 40.36C60.4607 39.8 60.2341 39.18 60.1941 38.5H63.0141C63.0674 38.9267 63.2741 39.28 63.6341 39.56C64.0074 39.84 64.4674 39.98 65.0141 39.98C65.5474 39.98 65.9607 39.8733 66.2541 39.66C66.5607 39.4467 66.7141 39.1733 66.7141 38.84C66.7141 38.48 66.5274 38.2133 66.1541 38.04C65.7941 37.8533 65.2141 37.6533 64.4141 37.44C63.5874 37.24 62.9074 37.0333 62.3741 36.82C61.8541 36.6067 61.4007 36.28 61.0141 35.84C60.6407 35.4 60.4541 34.8067 60.4541 34.06C60.4541 33.4467 60.6274 32.8867 60.9741 32.38C61.3341 31.8733 61.8407 31.4733 62.4941 31.18C63.1607 30.8867 63.9407 30.74 64.8341 30.74C66.1541 30.74 67.2074 31.0733 67.9941 31.74C68.7807 32.3933 69.2141 33.28 69.2941 34.4H66.6141C66.5741 33.96 66.3874 33.6133 66.0541 33.36C65.7341 33.0933 65.3007 32.96 64.7541 32.96C64.2474 32.96 63.8541 33.0533 63.5741 33.24C63.3074 33.4267 63.1741 33.6867 63.1741 34.02C63.1741 34.3933 63.3607 34.68 63.7341 34.88C64.1074 35.0667 64.6874 35.26 65.4741 35.46C66.2741 35.66 66.9341 35.8667 67.4541 36.08C67.9741 36.2933 68.4207 36.6267 68.7941 37.08C69.1807 37.52 69.3807 38.1067 69.3941 38.84C69.3941 39.48 69.2141 40.0533 68.8541 40.56C68.5074 41.0667 68.0007 41.4667 67.3341 41.76C66.6807 42.04 65.9141 42.18 65.0341 42.18ZM81.9925 36.22C81.9925 36.62 81.9658 36.98 81.9125 37.3H73.8125C73.8792 38.1 74.1592 38.7267 74.6525 39.18C75.1458 39.6333 75.7525 39.86 76.4725 39.86C77.5125 39.86 78.2525 39.4133 78.6925 38.52H81.7125C81.3925 39.5867 80.7792 40.4667 79.8725 41.16C78.9658 41.84 77.8525 42.18 76.5325 42.18C75.4658 42.18 74.5058 41.9467 73.6525 41.48C72.8125 41 72.1525 40.3267 71.6725 39.46C71.2058 38.5933 70.9725 37.5933 70.9725 36.46C70.9725 35.3133 71.2058 34.3067 71.6725 33.44C72.1392 32.5733 72.7925 31.9067 73.6325 31.44C74.4725 30.9733 75.4392 30.74 76.5325 30.74C77.5858 30.74 78.5258 30.9667 79.3525 31.42C80.1925 31.8733 80.8392 32.52 81.2925 33.36C81.7592 34.1867 81.9925 35.14 81.9925 36.22ZM79.0925 35.42C79.0792 34.7 78.8192 34.1267 78.3125 33.7C77.8058 33.26 77.1858 33.04 76.4525 33.04C75.7592 33.04 75.1725 33.2533 74.6925 33.68C74.2258 34.0933 73.9392 34.6733 73.8325 35.42H79.0925ZM88.1219 35C88.1219 33.6267 88.4285 32.4 89.0419 31.32C89.6685 30.2267 90.5152 29.38 91.5819 28.78C92.6619 28.1667 93.8685 27.86 95.2019 27.86C96.7619 27.86 98.1285 28.26 99.3019 29.06C100.475 29.86 101.295 30.9667 101.762 32.38H98.5419C98.2219 31.7133 97.7685 31.2133 97.1819 30.88C96.6085 30.5467 95.9419 30.38 95.1819 30.38C94.3685 30.38 93.6419 30.5733 93.0019 30.96C92.3752 31.3333 91.8819 31.8667 91.5219 32.56C91.1752 33.2533 91.0019 34.0667 91.0019 35C91.0019 35.92 91.1752 36.7333 91.5219 37.44C91.8819 38.1333 92.3752 38.6733 93.0019 39.06C93.6419 39.4333 94.3685 39.62 95.1819 39.62C95.9419 39.62 96.6085 39.4533 97.1819 39.12C97.7685 38.7733 98.2219 38.2667 98.5419 37.6H101.762C101.295 39.0267 100.475 40.14 99.3019 40.94C98.1419 41.7267 96.7752 42.12 95.2019 42.12C93.8685 42.12 92.6619 41.82 91.5819 41.22C90.5152 40.6067 89.6685 39.76 89.0419 38.68C88.4285 37.6 88.1219 36.3733 88.1219 35ZM103.433 36.42C103.433 35.3 103.653 34.3067 104.093 33.44C104.547 32.5733 105.153 31.9067 105.913 31.44C106.687 30.9733 107.547 30.74 108.493 30.74C109.32 30.74 110.04 30.9067 110.653 31.24C111.28 31.5733 111.78 31.9933 112.153 32.5V30.92H114.973V42H112.153V40.38C111.793 40.9 111.293 41.3333 110.653 41.68C110.027 42.0133 109.3 42.18 108.473 42.18C107.54 42.18 106.687 41.94 105.913 41.46C105.153 40.98 104.547 40.3067 104.093 39.44C103.653 38.56 103.433 37.5533 103.433 36.42ZM112.153 36.46C112.153 35.78 112.02 35.2 111.753 34.72C111.487 34.2267 111.127 33.8533 110.673 33.6C110.22 33.3333 109.733 33.2 109.213 33.2C108.693 33.2 108.213 33.3267 107.773 33.58C107.333 33.8333 106.973 34.2067 106.693 34.7C106.427 35.18 106.293 35.7533 106.293 36.42C106.293 37.0867 106.427 37.6733 106.693 38.18C106.973 38.6733 107.333 39.0533 107.773 39.32C108.227 39.5867 108.707 39.72 109.213 39.72C109.733 39.72 110.22 39.5933 110.673 39.34C111.127 39.0733 111.487 38.7 111.753 38.22C112.02 37.7267 112.153 37.14 112.153 36.46ZM120.968 33.22V38.58C120.968 38.9533 121.055 39.2267 121.228 39.4C121.415 39.56 121.721 39.64 122.148 39.64H123.448V42H121.688C119.328 42 118.148 40.8533 118.148 38.56V33.22H116.828V30.92H118.148V28.18H120.968V30.92H123.448V33.22H120.968ZM135.762 36.22C135.762 36.62 135.735 36.98 135.682 37.3H127.582C127.649 38.1 127.929 38.7267 128.422 39.18C128.915 39.6333 129.522 39.86 130.242 39.86C131.282 39.86 132.022 39.4133 132.462 38.52H135.482C135.162 39.5867 134.549 40.4667 133.642 41.16C132.735 41.84 131.622 42.18 130.302 42.18C129.235 42.18 128.275 41.9467 127.422 41.48C126.582 41 125.922 40.3267 125.442 39.46C124.975 38.5933 124.742 37.5933 124.742 36.46C124.742 35.3133 124.975 34.3067 125.442 33.44C125.909 32.5733 126.562 31.9067 127.402 31.44C128.242 30.9733 129.209 30.74 130.302 30.74C131.355 30.74 132.295 30.9667 133.122 31.42C133.962 31.8733 134.609 32.52 135.062 33.36C135.529 34.1867 135.762 35.14 135.762 36.22ZM132.862 35.42C132.849 34.7 132.589 34.1267 132.082 33.7C131.575 33.26 130.955 33.04 130.222 33.04C129.529 33.04 128.942 33.2533 128.462 33.68C127.995 34.0933 127.709 34.6733 127.602 35.42H132.862ZM142.146 30.74C142.972 30.74 143.699 30.9067 144.326 31.24C144.952 31.56 145.446 31.98 145.806 32.5V30.92H148.626V42.08C148.626 43.1067 148.419 44.02 148.006 44.82C147.592 45.6333 146.972 46.2733 146.146 46.74C145.319 47.22 144.319 47.46 143.146 47.46C141.572 47.46 140.279 47.0933 139.266 46.36C138.266 45.6267 137.699 44.6267 137.566 43.36H140.346C140.492 43.8667 140.806 44.2667 141.286 44.56C141.779 44.8667 142.372 45.02 143.066 45.02C143.879 45.02 144.539 44.7733 145.046 44.28C145.552 43.8 145.806 43.0667 145.806 42.08V40.36C145.446 40.88 144.946 41.3133 144.306 41.66C143.679 42.0067 142.959 42.18 142.146 42.18C141.212 42.18 140.359 41.94 139.586 41.46C138.812 40.98 138.199 40.3067 137.746 39.44C137.306 38.56 137.086 37.5533 137.086 36.42C137.086 35.3 137.306 34.3067 137.746 33.44C138.199 32.5733 138.806 31.9067 139.566 31.44C140.339 30.9733 141.199 30.74 142.146 30.74ZM145.806 36.46C145.806 35.78 145.672 35.2 145.406 34.72C145.139 34.2267 144.779 33.8533 144.326 33.6C143.872 33.3333 143.386 33.2 142.866 33.2C142.346 33.2 141.866 33.3267 141.426 33.58C140.986 33.8333 140.626 34.2067 140.346 34.7C140.079 35.18 139.946 35.7533 139.946 36.42C139.946 37.0867 140.079 37.6733 140.346 38.18C140.626 38.6733 140.986 39.0533 141.426 39.32C141.879 39.5867 142.359 39.72 142.866 39.72C143.386 39.72 143.872 39.5933 144.326 39.34C144.779 39.0733 145.139 38.7 145.406 38.22C145.672 37.7267 145.806 37.14 145.806 36.46ZM156.28 42.18C155.214 42.18 154.254 41.9467 153.4 41.48C152.547 41 151.874 40.3267 151.38 39.46C150.9 38.5933 150.66 37.5933 150.66 36.46C150.66 35.3267 150.907 34.3267 151.4 33.46C151.907 32.5933 152.594 31.9267 153.46 31.46C154.327 30.98 155.294 30.74 156.36 30.74C157.427 30.74 158.394 30.98 159.26 31.46C160.127 31.9267 160.807 32.5933 161.3 33.46C161.807 34.3267 162.06 35.3267 162.06 36.46C162.06 37.5933 161.8 38.5933 161.28 39.46C160.774 40.3267 160.08 41 159.2 41.48C158.334 41.9467 157.36 42.18 156.28 42.18ZM156.28 39.74C156.787 39.74 157.26 39.62 157.7 39.38C158.154 39.1267 158.514 38.7533 158.78 38.26C159.047 37.7667 159.18 37.1667 159.18 36.46C159.18 35.4067 158.9 34.6 158.34 34.04C157.794 33.4667 157.12 33.18 156.32 33.18C155.52 33.18 154.847 33.4667 154.3 34.04C153.767 34.6 153.5 35.4067 153.5 36.46C153.5 37.5133 153.76 38.3267 154.28 38.9C154.814 39.46 155.48 39.74 156.28 39.74ZM166.914 32.64C167.274 32.0533 167.741 31.5933 168.314 31.26C168.901 30.9267 169.568 30.76 170.314 30.76V33.7H169.574C168.694 33.7 168.028 33.9067 167.574 34.32C167.134 34.7333 166.914 35.4533 166.914 36.48V42H164.114V30.92H166.914V32.64ZM182.8 30.92L175.94 47.24H172.96L175.36 41.72L170.92 30.92H174.06L176.92 38.66L179.82 30.92H182.8Z" fill="#605555"/>
</svg>
