<svg width="1280" height="54" viewBox="0 0 1280 54" fill="none" xmlns="http://www.w3.org/2000/svg">
<rect width="1280" height="54" fill="white"/>
<path d="M102.948 21.848L98.74 33H97.06L92.852 21.848H94.404L97.908 31.464L101.412 21.848H102.948ZM105.297 22.808C105.019 22.808 104.785 22.712 104.593 22.52C104.401 22.328 104.305 22.0933 104.305 21.816C104.305 21.5387 104.401 21.304 104.593 21.112C104.785 20.92 105.019 20.824 105.297 20.824C105.563 20.824 105.787 20.92 105.969 21.112C106.161 21.304 106.257 21.5387 106.257 21.816C106.257 22.0933 106.161 22.328 105.969 22.52C105.787 22.712 105.563 22.808 105.297 22.808ZM106.001 24.232V33H104.545V24.232H106.001ZM109.938 25.656C110.194 25.1547 110.557 24.7653 111.026 24.488C111.506 24.2107 112.087 24.072 112.77 24.072V25.576H112.386C110.754 25.576 109.938 26.4613 109.938 28.232V33H108.482V24.232H109.938V25.656ZM116.227 25.432V30.6C116.227 31.0267 116.317 31.3307 116.499 31.512C116.68 31.6827 116.995 31.768 117.443 31.768H118.515V33H117.203C116.392 33 115.784 32.8133 115.379 32.44C114.973 32.0667 114.771 31.4533 114.771 30.6V25.432H113.635V24.232H114.771V22.024H116.227V24.232H118.515V25.432H116.227ZM128.055 24.232V33H126.599V31.704C126.322 32.152 125.932 32.504 125.431 32.76C124.94 33.0053 124.396 33.128 123.799 33.128C123.116 33.128 122.503 32.9893 121.959 32.712C121.415 32.424 120.983 31.9973 120.663 31.432C120.354 30.8667 120.199 30.1787 120.199 29.368V24.232H121.639V29.176C121.639 30.04 121.858 30.7067 122.295 31.176C122.732 31.6347 123.33 31.864 124.087 31.864C124.866 31.864 125.479 31.624 125.927 31.144C126.375 30.664 126.599 29.9653 126.599 29.048V24.232H128.055ZM133.617 33.144C132.945 33.144 132.343 33.032 131.809 32.808C131.276 32.5733 130.855 32.2533 130.545 31.848C130.236 31.432 130.065 30.9573 130.033 30.424H131.537C131.58 30.8613 131.783 31.2187 132.145 31.496C132.519 31.7733 133.004 31.912 133.601 31.912C134.156 31.912 134.593 31.7893 134.913 31.544C135.233 31.2987 135.393 30.9893 135.393 30.616C135.393 30.232 135.223 29.9493 134.881 29.768C134.54 29.576 134.012 29.3893 133.297 29.208C132.647 29.0373 132.113 28.8667 131.697 28.696C131.292 28.5147 130.94 28.2533 130.641 27.912C130.353 27.56 130.209 27.1013 130.209 26.536C130.209 26.088 130.343 25.6773 130.609 25.304C130.876 24.9307 131.255 24.6373 131.745 24.424C132.236 24.2 132.796 24.088 133.425 24.088C134.396 24.088 135.18 24.3333 135.777 24.824C136.375 25.3147 136.695 25.9867 136.737 26.84H135.281C135.249 26.3813 135.063 26.0133 134.721 25.736C134.391 25.4587 133.943 25.32 133.377 25.32C132.855 25.32 132.439 25.432 132.129 25.656C131.82 25.88 131.665 26.1733 131.665 26.536C131.665 26.824 131.756 27.064 131.937 27.256C132.129 27.4373 132.364 27.5867 132.641 27.704C132.929 27.8107 133.324 27.9333 133.825 28.072C134.455 28.2427 134.967 28.4133 135.361 28.584C135.756 28.744 136.092 28.9893 136.369 29.32C136.657 29.6507 136.807 30.0827 136.817 30.616C136.817 31.096 136.684 31.528 136.417 31.912C136.151 32.296 135.772 32.6 135.281 32.824C134.801 33.0373 134.247 33.144 133.617 33.144ZM146.873 28.28C146.873 28.5573 146.857 28.8507 146.825 29.16H139.817C139.87 30.024 140.163 30.7013 140.697 31.192C141.241 31.672 141.897 31.912 142.665 31.912C143.294 31.912 143.817 31.768 144.233 31.48C144.659 31.1813 144.958 30.7867 145.129 30.296H146.697C146.462 31.1387 145.993 31.8267 145.289 32.36C144.585 32.8827 143.71 33.144 142.665 33.144C141.833 33.144 141.086 32.9573 140.425 32.584C139.774 32.2107 139.262 31.6827 138.889 31C138.515 30.3067 138.329 29.5067 138.329 28.6C138.329 27.6933 138.51 26.8987 138.873 26.216C139.235 25.5333 139.742 25.0107 140.393 24.648C141.054 24.2747 141.811 24.088 142.665 24.088C143.497 24.088 144.233 24.2693 144.873 24.632C145.513 24.9947 146.003 25.496 146.345 26.136C146.697 26.7653 146.873 27.48 146.873 28.28ZM145.369 27.976C145.369 27.4213 145.246 26.9467 145.001 26.552C144.755 26.1467 144.419 25.8427 143.993 25.64C143.577 25.4267 143.113 25.32 142.601 25.32C141.865 25.32 141.235 25.5547 140.713 26.024C140.201 26.4933 139.907 27.144 139.833 27.976H145.369ZM156.795 28.28C156.795 28.5573 156.779 28.8507 156.747 29.16H149.739C149.792 30.024 150.085 30.7013 150.619 31.192C151.163 31.672 151.819 31.912 152.587 31.912C153.216 31.912 153.739 31.768 154.155 31.48C154.581 31.1813 154.88 30.7867 155.051 30.296H156.619C156.384 31.1387 155.915 31.8267 155.211 32.36C154.507 32.8827 153.632 33.144 152.587 33.144C151.755 33.144 151.008 32.9573 150.347 32.584C149.696 32.2107 149.184 31.6827 148.811 31C148.437 30.3067 148.251 29.5067 148.251 28.6C148.251 27.6933 148.432 26.8987 148.795 26.216C149.157 25.5333 149.664 25.0107 150.315 24.648C150.976 24.2747 151.733 24.088 152.587 24.088C153.419 24.088 154.155 24.2693 154.795 24.632C155.435 24.9947 155.925 25.496 156.267 26.136C156.619 26.7653 156.795 27.48 156.795 28.28ZM155.291 27.976C155.291 27.4213 155.168 26.9467 154.923 26.552C154.677 26.1467 154.341 25.8427 153.915 25.64C153.499 25.4267 153.035 25.32 152.523 25.32C151.787 25.32 151.157 25.5547 150.635 26.024C150.123 26.4933 149.829 27.144 149.755 27.976H155.291ZM163.612 33L160.172 29.128V33H158.716V21.16H160.172V28.12L163.548 24.232H165.58L161.452 28.6L165.596 33H163.612ZM167.415 33.096C167.137 33.096 166.903 33 166.711 32.808C166.519 32.616 166.423 32.3813 166.423 32.104C166.423 31.8267 166.519 31.592 166.711 31.4C166.903 31.208 167.137 31.112 167.415 31.112C167.681 31.112 167.905 31.208 168.087 31.4C168.279 31.592 168.375 31.8267 168.375 32.104C168.375 32.3813 168.279 32.616 168.087 32.808C167.905 33 167.681 33.096 167.415 33.096ZM171.062 22.808C170.785 22.808 170.55 22.712 170.358 22.52C170.166 22.328 170.07 22.0933 170.07 21.816C170.07 21.5387 170.166 21.304 170.358 21.112C170.55 20.92 170.785 20.824 171.062 20.824C171.329 20.824 171.553 20.92 171.734 21.112C171.926 21.304 172.022 21.5387 172.022 21.816C172.022 22.0933 171.926 22.328 171.734 22.52C171.553 22.712 171.329 22.808 171.062 22.808ZM171.766 24.232V33H170.31V24.232H171.766ZM173.704 28.584C173.704 27.688 173.885 26.904 174.248 26.232C174.61 25.5493 175.106 25.0213 175.736 24.648C176.376 24.2747 177.09 24.088 177.88 24.088C178.562 24.088 179.197 24.248 179.784 24.568C180.37 24.8773 180.818 25.288 181.128 25.8V21.16H182.6V33H181.128V31.352C180.84 31.8747 180.413 32.3067 179.848 32.648C179.282 32.9787 178.621 33.144 177.864 33.144C177.085 33.144 176.376 32.952 175.736 32.568C175.106 32.184 174.61 31.6453 174.248 30.952C173.885 30.2587 173.704 29.4693 173.704 28.584ZM181.128 28.6C181.128 27.9387 180.994 27.3627 180.728 26.872C180.461 26.3813 180.098 26.008 179.64 25.752C179.192 25.4853 178.696 25.352 178.152 25.352C177.608 25.352 177.112 25.48 176.664 25.736C176.216 25.992 175.858 26.3653 175.592 26.856C175.325 27.3467 175.192 27.9227 175.192 28.584C175.192 29.256 175.325 29.8427 175.592 30.344C175.858 30.8347 176.216 31.2133 176.664 31.48C177.112 31.736 177.608 31.864 178.152 31.864C178.696 31.864 179.192 31.736 179.64 31.48C180.098 31.2133 180.461 30.8347 180.728 30.344C180.994 29.8427 181.128 29.2613 181.128 28.6Z" fill="#605555" fill-opacity="0.5"/>
<path d="M503.096 21.742V31.5H501.822V27.076H496.852V31.5H495.578V21.742H496.852V26.026H501.822V21.742H503.096ZM508.617 31.626C507.899 31.626 507.245 31.4627 506.657 31.136C506.079 30.8093 505.621 30.3473 505.285 29.75C504.959 29.1433 504.795 28.4433 504.795 27.65C504.795 26.866 504.963 26.1753 505.299 25.578C505.645 24.9713 506.111 24.5093 506.699 24.192C507.287 23.8653 507.945 23.702 508.673 23.702C509.401 23.702 510.059 23.8653 510.647 24.192C511.235 24.5093 511.697 24.9667 512.033 25.564C512.379 26.1613 512.551 26.8567 512.551 27.65C512.551 28.4433 512.374 29.1433 512.019 29.75C511.674 30.3473 511.203 30.8093 510.605 31.136C510.008 31.4627 509.345 31.626 508.617 31.626ZM508.617 30.506C509.075 30.506 509.504 30.3987 509.905 30.184C510.307 29.9693 510.629 29.6473 510.871 29.218C511.123 28.7887 511.249 28.266 511.249 27.65C511.249 27.034 511.128 26.5113 510.885 26.082C510.643 25.6527 510.325 25.3353 509.933 25.13C509.541 24.9153 509.117 24.808 508.659 24.808C508.193 24.808 507.763 24.9153 507.371 25.13C506.989 25.3353 506.681 25.6527 506.447 26.082C506.214 26.5113 506.097 27.034 506.097 27.65C506.097 28.2753 506.209 28.8027 506.433 29.232C506.667 29.6613 506.975 29.9833 507.357 30.198C507.74 30.4033 508.16 30.506 508.617 30.506ZM523.452 23.688C524.05 23.688 524.582 23.814 525.048 24.066C525.515 24.3087 525.884 24.6773 526.154 25.172C526.425 25.6667 526.56 26.2687 526.56 26.978V31.5H525.3V27.16C525.3 26.3947 525.109 25.8113 524.726 25.41C524.353 24.9993 523.844 24.794 523.2 24.794C522.538 24.794 522.01 25.0087 521.618 25.438C521.226 25.858 521.03 26.4693 521.03 27.272V31.5H519.77V27.16C519.77 26.3947 519.579 25.8113 519.196 25.41C518.823 24.9993 518.314 24.794 517.67 24.794C517.008 24.794 516.48 25.0087 516.088 25.438C515.696 25.858 515.5 26.4693 515.5 27.272V31.5H514.226V23.828H515.5V24.934C515.752 24.5327 516.088 24.2247 516.508 24.01C516.938 23.7953 517.409 23.688 517.922 23.688C518.566 23.688 519.136 23.8327 519.63 24.122C520.125 24.4113 520.494 24.836 520.736 25.396C520.951 24.8547 521.306 24.4347 521.8 24.136C522.295 23.8373 522.846 23.688 523.452 23.688ZM535.65 27.37C535.65 27.6127 535.636 27.8693 535.608 28.14H529.476C529.523 28.896 529.78 29.4887 530.246 29.918C530.722 30.338 531.296 30.548 531.968 30.548C532.519 30.548 532.976 30.422 533.34 30.17C533.714 29.9087 533.975 29.5633 534.124 29.134H535.496C535.291 29.8713 534.88 30.4733 534.264 30.94C533.648 31.3973 532.883 31.626 531.968 31.626C531.24 31.626 530.587 31.4627 530.008 31.136C529.439 30.8093 528.991 30.3473 528.664 29.75C528.338 29.1433 528.174 28.4433 528.174 27.65C528.174 26.8567 528.333 26.1613 528.65 25.564C528.968 24.9667 529.411 24.5093 529.98 24.192C530.559 23.8653 531.222 23.702 531.968 23.702C532.696 23.702 533.34 23.8607 533.9 24.178C534.46 24.4953 534.89 24.934 535.188 25.494C535.496 26.0447 535.65 26.67 535.65 27.37ZM534.334 27.104C534.334 26.6187 534.227 26.2033 534.012 25.858C533.798 25.5033 533.504 25.2373 533.13 25.06C532.766 24.8733 532.36 24.78 531.912 24.78C531.268 24.78 530.718 24.9853 530.26 25.396C529.812 25.8067 529.556 26.376 529.49 27.104H534.334Z" fill="#605555" fill-opacity="0.5"/>
<path d="M553.102 26.614C553.102 25.662 553.317 24.808 553.746 24.052C554.175 23.2867 554.759 22.6893 555.496 22.26C556.243 21.8307 557.069 21.616 557.974 21.616C559.038 21.616 559.967 21.8727 560.76 22.386C561.553 22.8993 562.132 23.6273 562.496 24.57H560.97C560.699 23.982 560.307 23.5293 559.794 23.212C559.29 22.8947 558.683 22.736 557.974 22.736C557.293 22.736 556.681 22.8947 556.14 23.212C555.599 23.5293 555.174 23.982 554.866 24.57C554.558 25.1487 554.404 25.83 554.404 26.614C554.404 27.3887 554.558 28.07 554.866 28.658C555.174 29.2367 555.599 29.6847 556.14 30.002C556.681 30.3193 557.293 30.478 557.974 30.478C558.683 30.478 559.29 30.324 559.794 30.016C560.307 29.6987 560.699 29.246 560.97 28.658H562.496C562.132 29.5913 561.553 30.3147 560.76 30.828C559.967 31.332 559.038 31.584 557.974 31.584C557.069 31.584 556.243 31.374 555.496 30.954C554.759 30.5247 554.175 29.932 553.746 29.176C553.317 28.42 553.102 27.566 553.102 26.614ZM563.916 27.636C563.916 26.852 564.075 26.166 564.392 25.578C564.71 24.9807 565.144 24.5187 565.694 24.192C566.254 23.8653 566.875 23.702 567.556 23.702C568.228 23.702 568.812 23.8467 569.306 24.136C569.801 24.4253 570.17 24.7893 570.412 25.228V23.828H571.7V31.5H570.412V30.072C570.16 30.52 569.782 30.8933 569.278 31.192C568.784 31.4813 568.205 31.626 567.542 31.626C566.861 31.626 566.245 31.458 565.694 31.122C565.144 30.786 564.71 30.3147 564.392 29.708C564.075 29.1013 563.916 28.4107 563.916 27.636ZM570.412 27.65C570.412 27.0713 570.296 26.5673 570.062 26.138C569.829 25.7087 569.512 25.382 569.11 25.158C568.718 24.9247 568.284 24.808 567.808 24.808C567.332 24.808 566.898 24.92 566.506 25.144C566.114 25.368 565.802 25.6947 565.568 26.124C565.335 26.5533 565.218 27.0573 565.218 27.636C565.218 28.224 565.335 28.7373 565.568 29.176C565.802 29.6053 566.114 29.9367 566.506 30.17C566.898 30.394 567.332 30.506 567.808 30.506C568.284 30.506 568.718 30.394 569.11 30.17C569.512 29.9367 569.829 29.6053 570.062 29.176C570.296 28.7373 570.412 28.2287 570.412 27.65ZM575.407 24.878V29.4C575.407 29.7733 575.487 30.0393 575.645 30.198C575.804 30.3473 576.079 30.422 576.471 30.422H577.409V31.5H576.261C575.552 31.5 575.02 31.3367 574.665 31.01C574.311 30.6833 574.133 30.1467 574.133 29.4V24.878H573.139V23.828H574.133V21.896H575.407V23.828H577.409V24.878H575.407ZM585.953 27.37C585.953 27.6127 585.939 27.8693 585.911 28.14H579.779C579.826 28.896 580.082 29.4887 580.549 29.918C581.025 30.338 581.599 30.548 582.271 30.548C582.822 30.548 583.279 30.422 583.643 30.17C584.016 29.9087 584.278 29.5633 584.427 29.134H585.799C585.594 29.8713 585.183 30.4733 584.567 30.94C583.951 31.3973 583.186 31.626 582.271 31.626C581.543 31.626 580.89 31.4627 580.311 31.136C579.742 30.8093 579.294 30.3473 578.967 29.75C578.64 29.1433 578.477 28.4433 578.477 27.65C578.477 26.8567 578.636 26.1613 578.953 25.564C579.27 24.9667 579.714 24.5093 580.283 24.192C580.862 23.8653 581.524 23.702 582.271 23.702C582.999 23.702 583.643 23.8607 584.203 24.178C584.763 24.4953 585.192 24.934 585.491 25.494C585.799 26.0447 585.953 26.67 585.953 27.37ZM584.637 27.104C584.637 26.6187 584.53 26.2033 584.315 25.858C584.1 25.5033 583.806 25.2373 583.433 25.06C583.069 24.8733 582.663 24.78 582.215 24.78C581.571 24.78 581.02 24.9853 580.563 25.396C580.115 25.8067 579.858 26.376 579.793 27.104H584.637ZM590.799 23.702C591.461 23.702 592.04 23.8467 592.535 24.136C593.039 24.4253 593.412 24.7893 593.655 25.228V23.828H594.943V31.668C594.943 32.368 594.793 32.9887 594.495 33.53C594.196 34.0807 593.767 34.51 593.207 34.818C592.656 35.126 592.012 35.28 591.275 35.28C590.267 35.28 589.427 35.042 588.755 34.566C588.083 34.09 587.686 33.4413 587.565 32.62H588.825C588.965 33.0867 589.254 33.46 589.693 33.74C590.131 34.0293 590.659 34.174 591.275 34.174C591.975 34.174 592.544 33.9547 592.983 33.516C593.431 33.0773 593.655 32.4613 593.655 31.668V30.058C593.403 30.506 593.029 30.8793 592.535 31.178C592.04 31.4767 591.461 31.626 590.799 31.626C590.117 31.626 589.497 31.458 588.937 31.122C588.386 30.786 587.952 30.3147 587.635 29.708C587.317 29.1013 587.159 28.4107 587.159 27.636C587.159 26.852 587.317 26.166 587.635 25.578C587.952 24.9807 588.386 24.5187 588.937 24.192C589.497 23.8653 590.117 23.702 590.799 23.702ZM593.655 27.65C593.655 27.0713 593.538 26.5673 593.305 26.138C593.071 25.7087 592.754 25.382 592.353 25.158C591.961 24.9247 591.527 24.808 591.051 24.808C590.575 24.808 590.141 24.92 589.749 25.144C589.357 25.368 589.044 25.6947 588.811 26.124C588.577 26.5533 588.461 27.0573 588.461 27.636C588.461 28.224 588.577 28.7373 588.811 29.176C589.044 29.6053 589.357 29.9367 589.749 30.17C590.141 30.394 590.575 30.506 591.051 30.506C591.527 30.506 591.961 30.394 592.353 30.17C592.754 29.9367 593.071 29.6053 593.305 29.176C593.538 28.7373 593.655 28.2287 593.655 27.65ZM600.442 31.626C599.723 31.626 599.07 31.4627 598.482 31.136C597.903 30.8093 597.446 30.3473 597.11 29.75C596.783 29.1433 596.62 28.4433 596.62 27.65C596.62 26.866 596.788 26.1753 597.124 25.578C597.469 24.9713 597.936 24.5093 598.524 24.192C599.112 23.8653 599.77 23.702 600.498 23.702C601.226 23.702 601.884 23.8653 602.472 24.192C603.06 24.5093 603.522 24.9667 603.858 25.564C604.203 26.1613 604.376 26.8567 604.376 27.65C604.376 28.4433 604.198 29.1433 603.844 29.75C603.498 30.3473 603.027 30.8093 602.43 31.136C601.832 31.4627 601.17 31.626 600.442 31.626ZM600.442 30.506C600.899 30.506 601.328 30.3987 601.73 30.184C602.131 29.9693 602.453 29.6473 602.696 29.218C602.948 28.7887 603.074 28.266 603.074 27.65C603.074 27.034 602.952 26.5113 602.71 26.082C602.467 25.6527 602.15 25.3353 601.758 25.13C601.366 24.9153 600.941 24.808 600.484 24.808C600.017 24.808 599.588 24.9153 599.196 25.13C598.813 25.3353 598.505 25.6527 598.272 26.082C598.038 26.5113 597.922 27.034 597.922 27.65C597.922 28.2753 598.034 28.8027 598.258 29.232C598.491 29.6613 598.799 29.9833 599.182 30.198C599.564 30.4033 599.984 30.506 600.442 30.506ZM607.325 25.074C607.549 24.6353 607.866 24.2947 608.277 24.052C608.697 23.8093 609.205 23.688 609.803 23.688V25.004H609.467C608.039 25.004 607.325 25.7787 607.325 27.328V31.5H606.051V23.828H607.325V25.074ZM617.881 23.828L613.261 35.112H611.945L613.457 31.416L610.363 23.828H611.777L614.185 30.044L616.565 23.828H617.881Z" fill="#605555" fill-opacity="0.5"/>
<path d="M642.102 24.598C642.102 25.41 641.822 26.0867 641.262 26.628C640.711 27.16 639.867 27.426 638.728 27.426H636.852V31.5H635.578V21.742H638.728C639.829 21.742 640.665 22.008 641.234 22.54C641.813 23.072 642.102 23.758 642.102 24.598ZM638.728 26.376C639.437 26.376 639.96 26.222 640.296 25.914C640.632 25.606 640.8 25.1673 640.8 24.598C640.8 23.394 640.109 22.792 638.728 22.792H636.852V26.376H638.728ZM644.959 25.074C645.183 24.6353 645.501 24.2947 645.911 24.052C646.331 23.8093 646.84 23.688 647.437 23.688V25.004H647.101C645.673 25.004 644.959 25.7787 644.959 27.328V31.5H643.685V23.828H644.959V25.074ZM652.254 31.626C651.535 31.626 650.882 31.4627 650.294 31.136C649.715 30.8093 649.258 30.3473 648.922 29.75C648.595 29.1433 648.432 28.4433 648.432 27.65C648.432 26.866 648.6 26.1753 648.936 25.578C649.281 24.9713 649.748 24.5093 650.336 24.192C650.924 23.8653 651.582 23.702 652.31 23.702C653.038 23.702 653.696 23.8653 654.284 24.192C654.872 24.5093 655.334 24.9667 655.67 25.564C656.015 26.1613 656.188 26.8567 656.188 27.65C656.188 28.4433 656.011 29.1433 655.656 29.75C655.311 30.3473 654.839 30.8093 654.242 31.136C653.645 31.4627 652.982 31.626 652.254 31.626ZM652.254 30.506C652.711 30.506 653.141 30.3987 653.542 30.184C653.943 29.9693 654.265 29.6473 654.508 29.218C654.76 28.7887 654.886 28.266 654.886 27.65C654.886 27.034 654.765 26.5113 654.522 26.082C654.279 25.6527 653.962 25.3353 653.57 25.13C653.178 24.9153 652.753 24.808 652.296 24.808C651.829 24.808 651.4 24.9153 651.008 25.13C650.625 25.3353 650.317 25.6527 650.084 26.082C649.851 26.5113 649.734 27.034 649.734 27.65C649.734 28.2753 649.846 28.8027 650.07 29.232C650.303 29.6613 650.611 29.9833 650.994 30.198C651.377 30.4033 651.797 30.506 652.254 30.506ZM657.387 27.636C657.387 26.852 657.546 26.166 657.863 25.578C658.18 24.9807 658.614 24.5187 659.165 24.192C659.725 23.8653 660.35 23.702 661.041 23.702C661.638 23.702 662.194 23.842 662.707 24.122C663.22 24.3927 663.612 24.752 663.883 25.2V21.14H665.171V31.5H663.883V30.058C663.631 30.5153 663.258 30.8933 662.763 31.192C662.268 31.4813 661.69 31.626 661.027 31.626C660.346 31.626 659.725 31.458 659.165 31.122C658.614 30.786 658.18 30.3147 657.863 29.708C657.546 29.1013 657.387 28.4107 657.387 27.636ZM663.883 27.65C663.883 27.0713 663.766 26.5673 663.533 26.138C663.3 25.7087 662.982 25.382 662.581 25.158C662.189 24.9247 661.755 24.808 661.279 24.808C660.803 24.808 660.369 24.92 659.977 25.144C659.585 25.368 659.272 25.6947 659.039 26.124C658.806 26.5533 658.689 27.0573 658.689 27.636C658.689 28.224 658.806 28.7373 659.039 29.176C659.272 29.6053 659.585 29.9367 659.977 30.17C660.369 30.394 660.803 30.506 661.279 30.506C661.755 30.506 662.189 30.394 662.581 30.17C662.982 29.9367 663.3 29.6053 663.533 29.176C663.766 28.7373 663.883 28.2287 663.883 27.65ZM674.128 23.828V31.5H672.854V30.366C672.611 30.758 672.271 31.066 671.832 31.29C671.403 31.5047 670.927 31.612 670.404 31.612C669.807 31.612 669.27 31.4907 668.794 31.248C668.318 30.996 667.94 30.6227 667.66 30.128C667.389 29.6333 667.254 29.0313 667.254 28.322V23.828H668.514V28.154C668.514 28.91 668.705 29.4933 669.088 29.904C669.471 30.3053 669.993 30.506 670.656 30.506C671.337 30.506 671.874 30.296 672.266 29.876C672.658 29.456 672.854 28.8447 672.854 28.042V23.828H674.128ZM675.803 27.65C675.803 26.8567 675.962 26.166 676.279 25.578C676.597 24.9807 677.035 24.5187 677.595 24.192C678.165 23.8653 678.813 23.702 679.541 23.702C680.484 23.702 681.259 23.9307 681.865 24.388C682.481 24.8453 682.887 25.48 683.083 26.292H681.711C681.581 25.8253 681.324 25.4567 680.941 25.186C680.568 24.9153 680.101 24.78 679.541 24.78C678.813 24.78 678.225 25.032 677.777 25.536C677.329 26.0307 677.105 26.7353 677.105 27.65C677.105 28.574 677.329 29.288 677.777 29.792C678.225 30.296 678.813 30.548 679.541 30.548C680.101 30.548 680.568 30.4173 680.941 30.156C681.315 29.8947 681.571 29.5213 681.711 29.036H683.083C682.878 29.82 682.467 30.45 681.851 30.926C681.235 31.3927 680.465 31.626 679.541 31.626C678.813 31.626 678.165 31.4627 677.595 31.136C677.035 30.8093 676.597 30.3473 676.279 29.75C675.962 29.1527 675.803 28.4527 675.803 27.65ZM686.337 24.878V29.4C686.337 29.7733 686.416 30.0393 686.575 30.198C686.734 30.3473 687.009 30.422 687.401 30.422H688.339V31.5H687.191C686.482 31.5 685.95 31.3367 685.595 31.01C685.24 30.6833 685.063 30.1467 685.063 29.4V24.878H684.069V23.828H685.063V21.896H686.337V23.828H688.339V24.878H686.337Z" fill="#605555" fill-opacity="0.5"/>
<path d="M712.5 20C713.163 20 713.799 20.2634 714.268 20.7322C714.737 21.2011 715 21.837 715 22.5V23H710V22.5C710 21.837 710.263 21.2011 710.732 20.7322C711.201 20.2634 711.837 20 712.5 20ZM716 23V22.5C716 21.5717 715.631 20.6815 714.975 20.0251C714.318 19.3687 713.428 19 712.5 19C711.572 19 710.682 19.3687 710.025 20.0251C709.369 20.6815 709 21.5717 709 22.5V23H705.5V33C705.5 33.5304 705.711 34.0391 706.086 34.4142C706.461 34.7893 706.97 35 707.5 35H717.5C718.03 35 718.539 34.7893 718.914 34.4142C719.289 34.0391 719.5 33.5304 719.5 33V23H716ZM706.5 24H718.5V33C718.5 33.2652 718.395 33.5196 718.207 33.7071C718.02 33.8946 717.765 34 717.5 34H707.5C707.235 34 706.98 33.8946 706.793 33.7071C706.605 33.5196 706.5 33.2652 706.5 33V24Z" fill="black"/>
<circle cx="718" cy="22.5" r="2.5" fill="#4EEAC5" fill-opacity="0.96"/>
<rect x="495.5" y="34" width="34" height="2" rx="1" fill="#4EEAC5" fill-opacity="0.96"/>
<rect x="1020.5" y="5" width="67" height="44" rx="10" fill="#D9D9D9"/>
<rect x="1020.5" y="5" width="67" height="44" rx="10" fill="#45EB91" fill-opacity="0.94"/>
<path d="M1033.19 31.816H1037.09V33H1031.73V21.848H1033.19V31.816ZM1042.46 33.144C1041.64 33.144 1040.89 32.9573 1040.22 32.584C1039.56 32.2107 1039.04 31.6827 1038.65 31C1038.28 30.3067 1038.09 29.5067 1038.09 28.6C1038.09 27.704 1038.29 26.9147 1038.67 26.232C1039.06 25.5387 1039.6 25.0107 1040.27 24.648C1040.94 24.2747 1041.69 24.088 1042.53 24.088C1043.36 24.088 1044.11 24.2747 1044.78 24.648C1045.45 25.0107 1045.98 25.5333 1046.37 26.216C1046.76 26.8987 1046.96 27.6933 1046.96 28.6C1046.96 29.5067 1046.76 30.3067 1046.35 31C1045.96 31.6827 1045.42 32.2107 1044.73 32.584C1044.05 32.9573 1043.29 33.144 1042.46 33.144ZM1042.46 31.864C1042.98 31.864 1043.48 31.7413 1043.93 31.496C1044.39 31.2507 1044.76 30.8827 1045.04 30.392C1045.33 29.9013 1045.47 29.304 1045.47 28.6C1045.47 27.896 1045.33 27.2987 1045.05 26.808C1044.78 26.3173 1044.41 25.9547 1043.97 25.72C1043.52 25.4747 1043.03 25.352 1042.51 25.352C1041.98 25.352 1041.49 25.4747 1041.04 25.72C1040.6 25.9547 1040.25 26.3173 1039.98 26.808C1039.72 27.2987 1039.58 27.896 1039.58 28.6C1039.58 29.3147 1039.71 29.9173 1039.97 30.408C1040.23 30.8987 1040.58 31.2667 1041.02 31.512C1041.46 31.7467 1041.94 31.864 1042.46 31.864ZM1052.49 24.088C1053.25 24.088 1053.91 24.2533 1054.47 24.584C1055.05 24.9147 1055.48 25.3307 1055.75 25.832V24.232H1057.22V33.192C1057.22 33.992 1057.05 34.7013 1056.71 35.32C1056.37 35.9493 1055.88 36.44 1055.24 36.792C1054.61 37.144 1053.88 37.32 1053.03 37.32C1051.88 37.32 1050.92 37.048 1050.15 36.504C1049.38 35.96 1048.93 35.2187 1048.79 34.28H1050.23C1050.39 34.8133 1050.72 35.24 1051.22 35.56C1051.73 35.8907 1052.33 36.056 1053.03 36.056C1053.83 36.056 1054.48 35.8053 1054.98 35.304C1055.5 34.8027 1055.75 34.0987 1055.75 33.192V31.352C1055.46 31.864 1055.04 32.2907 1054.47 32.632C1053.91 32.9733 1053.25 33.144 1052.49 33.144C1051.71 33.144 1051 32.952 1050.36 32.568C1049.73 32.184 1049.24 31.6453 1048.87 30.952C1048.51 30.2587 1048.33 29.4693 1048.33 28.584C1048.33 27.688 1048.51 26.904 1048.87 26.232C1049.24 25.5493 1049.73 25.0213 1050.36 24.648C1051 24.2747 1051.71 24.088 1052.49 24.088ZM1055.75 28.6C1055.75 27.9387 1055.62 27.3627 1055.35 26.872C1055.09 26.3813 1054.72 26.008 1054.26 25.752C1053.82 25.4853 1053.32 25.352 1052.78 25.352C1052.23 25.352 1051.74 25.48 1051.29 25.736C1050.84 25.992 1050.48 26.3653 1050.22 26.856C1049.95 27.3467 1049.82 27.9227 1049.82 28.584C1049.82 29.256 1049.95 29.8427 1050.22 30.344C1050.48 30.8347 1050.84 31.2133 1051.29 31.48C1051.74 31.736 1052.23 31.864 1052.78 31.864C1053.32 31.864 1053.82 31.736 1054.26 31.48C1054.72 31.2133 1055.09 30.8347 1055.35 30.344C1055.62 29.8427 1055.75 29.2613 1055.75 28.6ZM1064.7 22.808C1064.43 22.808 1064.19 22.712 1064 22.52C1063.81 22.328 1063.71 22.0933 1063.71 21.816C1063.71 21.5387 1063.81 21.304 1064 21.112C1064.19 20.92 1064.43 20.824 1064.7 20.824C1064.97 20.824 1065.19 20.92 1065.37 21.112C1065.57 21.304 1065.66 21.5387 1065.66 21.816C1065.66 22.0933 1065.57 22.328 1065.37 22.52C1065.19 22.712 1064.97 22.808 1064.7 22.808ZM1065.41 24.232V33H1063.95V24.232H1065.41ZM1072.16 24.072C1073.23 24.072 1074.09 24.3973 1074.75 25.048C1075.41 25.688 1075.74 26.616 1075.74 27.832V33H1074.3V28.04C1074.3 27.1653 1074.09 26.4987 1073.65 26.04C1073.21 25.5707 1072.61 25.336 1071.86 25.336C1071.09 25.336 1070.47 25.576 1070.02 26.056C1069.57 26.536 1069.34 27.2347 1069.34 28.152V33H1067.89V24.232H1069.34V25.48C1069.63 25.032 1070.02 24.6853 1070.51 24.44C1071.01 24.1947 1071.56 24.072 1072.16 24.072Z" fill="white"/>
<rect x="1097.5" y="5" width="73" height="44" rx="10" fill="#4EEAC5" fill-opacity="0.96"/>
<path d="M1112.27 33.112C1111.53 33.112 1110.87 32.984 1110.28 32.728C1109.71 32.4613 1109.25 32.0987 1108.92 31.64C1108.59 31.1707 1108.42 30.632 1108.41 30.024H1109.96C1110.02 30.5467 1110.23 30.9893 1110.6 31.352C1110.99 31.704 1111.54 31.88 1112.27 31.88C1112.96 31.88 1113.51 31.7093 1113.9 31.368C1114.31 31.016 1114.51 30.568 1114.51 30.024C1114.51 29.5973 1114.39 29.2507 1114.16 28.984C1113.92 28.7173 1113.63 28.5147 1113.28 28.376C1112.92 28.2373 1112.45 28.088 1111.85 27.928C1111.12 27.736 1110.52 27.544 1110.08 27.352C1109.64 27.16 1109.26 26.8613 1108.94 26.456C1108.63 26.04 1108.48 25.4853 1108.48 24.792C1108.48 24.184 1108.63 23.6453 1108.94 23.176C1109.25 22.7067 1109.68 22.344 1110.24 22.088C1110.8 21.832 1111.45 21.704 1112.17 21.704C1113.22 21.704 1114.07 21.9653 1114.73 22.488C1115.4 23.0107 1115.78 23.704 1115.87 24.568H1114.27C1114.21 24.1413 1113.99 23.768 1113.6 23.448C1113.2 23.1173 1112.68 22.952 1112.03 22.952C1111.42 22.952 1110.92 23.112 1110.54 23.432C1110.16 23.7413 1109.96 24.1787 1109.96 24.744C1109.96 25.1493 1110.08 25.48 1110.3 25.736C1110.53 25.992 1110.82 26.1893 1111.15 26.328C1111.49 26.456 1111.96 26.6053 1112.57 26.776C1113.31 26.9787 1113.9 27.1813 1114.35 27.384C1114.8 27.576 1115.18 27.88 1115.5 28.296C1115.82 28.7013 1115.98 29.256 1115.98 29.96C1115.98 30.504 1115.84 31.016 1115.55 31.496C1115.26 31.976 1114.83 32.3653 1114.27 32.664C1113.7 32.9627 1113.04 33.112 1112.27 33.112ZM1118.87 22.808C1118.6 22.808 1118.36 22.712 1118.17 22.52C1117.98 22.328 1117.88 22.0933 1117.88 21.816C1117.88 21.5387 1117.98 21.304 1118.17 21.112C1118.36 20.92 1118.6 20.824 1118.87 20.824C1119.14 20.824 1119.37 20.92 1119.55 21.112C1119.74 21.304 1119.83 21.5387 1119.83 21.816C1119.83 22.0933 1119.74 22.328 1119.55 22.52C1119.37 22.712 1119.14 22.808 1118.87 22.808ZM1119.58 24.232V33H1118.12V24.232H1119.58ZM1125.68 24.088C1126.43 24.088 1127.09 24.2533 1127.66 24.584C1128.24 24.9147 1128.66 25.3307 1128.94 25.832V24.232H1130.41V33.192C1130.41 33.992 1130.24 34.7013 1129.9 35.32C1129.56 35.9493 1129.07 36.44 1128.43 36.792C1127.8 37.144 1127.06 37.32 1126.22 37.32C1125.07 37.32 1124.11 37.048 1123.34 36.504C1122.57 35.96 1122.12 35.2187 1121.98 34.28H1123.42C1123.58 34.8133 1123.91 35.24 1124.41 35.56C1124.91 35.8907 1125.52 36.056 1126.22 36.056C1127.02 36.056 1127.67 35.8053 1128.17 35.304C1128.68 34.8027 1128.94 34.0987 1128.94 33.192V31.352C1128.65 31.864 1128.23 32.2907 1127.66 32.632C1127.09 32.9733 1126.43 33.144 1125.68 33.144C1124.9 33.144 1124.19 32.952 1123.55 32.568C1122.92 32.184 1122.42 31.6453 1122.06 30.952C1121.7 30.2587 1121.52 29.4693 1121.52 28.584C1121.52 27.688 1121.7 26.904 1122.06 26.232C1122.42 25.5493 1122.92 25.0213 1123.55 24.648C1124.19 24.2747 1124.9 24.088 1125.68 24.088ZM1128.94 28.6C1128.94 27.9387 1128.81 27.3627 1128.54 26.872C1128.27 26.3813 1127.91 26.008 1127.45 25.752C1127 25.4853 1126.51 25.352 1125.96 25.352C1125.42 25.352 1124.92 25.48 1124.48 25.736C1124.03 25.992 1123.67 26.3653 1123.4 26.856C1123.14 27.3467 1123 27.9227 1123 28.584C1123 29.256 1123.14 29.8427 1123.4 30.344C1123.67 30.8347 1124.03 31.2133 1124.48 31.48C1124.92 31.736 1125.42 31.864 1125.96 31.864C1126.51 31.864 1127 31.736 1127.45 31.48C1127.91 31.2133 1128.27 30.8347 1128.54 30.344C1128.81 29.8427 1128.94 29.2613 1128.94 28.6ZM1137.14 24.072C1138.21 24.072 1139.08 24.3973 1139.74 25.048C1140.4 25.688 1140.73 26.616 1140.73 27.832V33H1139.29V28.04C1139.29 27.1653 1139.07 26.4987 1138.63 26.04C1138.2 25.5707 1137.6 25.336 1136.84 25.336C1136.07 25.336 1135.46 25.576 1135 26.056C1134.55 26.536 1134.33 27.2347 1134.33 28.152V33H1132.87V24.232H1134.33V25.48C1134.62 25.032 1135.01 24.6853 1135.5 24.44C1136 24.1947 1136.55 24.072 1137.14 24.072ZM1148.83 21.848V33H1147.37V21.848H1148.83ZM1155.58 24.072C1156.65 24.072 1157.51 24.3973 1158.17 25.048C1158.84 25.688 1159.17 26.616 1159.17 27.832V33H1157.73V28.04C1157.73 27.1653 1157.51 26.4987 1157.07 26.04C1156.63 25.5707 1156.04 25.336 1155.28 25.336C1154.51 25.336 1153.9 25.576 1153.44 26.056C1152.99 26.536 1152.77 27.2347 1152.77 28.152V33H1151.31V24.232H1152.77V25.48C1153.05 25.032 1153.44 24.6853 1153.93 24.44C1154.44 24.1947 1154.98 24.072 1155.58 24.072Z" fill="#605555" fill-opacity="0.5"/>
</svg>
