<svg width="68" height="44" viewBox="0 0 68 44" fill="none" xmlns="http://www.w3.org/2000/svg">
<rect x="0.5" width="67" height="44" rx="10" fill="#D9D9D9"/>
<rect x="0.5" width="67" height="44" rx="10" fill="#45EB91" fill-opacity="0.94"/>
<path d="M13.188 26.816H17.092V28H11.732V16.848H13.188V26.816ZM22.4623 28.144C21.6409 28.144 20.8943 27.9573 20.2223 27.584C19.5609 27.2107 19.0383 26.6827 18.6543 26C18.2809 25.3067 18.0943 24.5067 18.0943 23.6C18.0943 22.704 18.2863 21.9147 18.6703 21.232C19.0649 20.5387 19.5983 20.0107 20.2703 19.648C20.9423 19.2747 21.6943 19.088 22.5263 19.088C23.3583 19.088 24.1103 19.2747 24.7823 19.648C25.4543 20.0107 25.9823 20.5333 26.3663 21.216C26.7609 21.8987 26.9583 22.6933 26.9583 23.6C26.9583 24.5067 26.7556 25.3067 26.3503 26C25.9556 26.6827 25.4169 27.2107 24.7343 27.584C24.0516 27.9573 23.2943 28.144 22.4623 28.144ZM22.4623 26.864C22.9849 26.864 23.4756 26.7413 23.9343 26.496C24.3929 26.2507 24.7609 25.8827 25.0383 25.392C25.3263 24.9013 25.4703 24.304 25.4703 23.6C25.4703 22.896 25.3316 22.2987 25.0543 21.808C24.7769 21.3173 24.4143 20.9547 23.9663 20.72C23.5183 20.4747 23.0329 20.352 22.5103 20.352C21.9769 20.352 21.4863 20.4747 21.0383 20.72C20.6009 20.9547 20.2489 21.3173 19.9823 21.808C19.7156 22.2987 19.5823 22.896 19.5823 23.6C19.5823 24.3147 19.7103 24.9173 19.9663 25.408C20.2329 25.8987 20.5849 26.2667 21.0223 26.512C21.4596 26.7467 21.9396 26.864 22.4623 26.864ZM32.4886 19.088C33.246 19.088 33.9073 19.2533 34.4726 19.584C35.0486 19.9147 35.4753 20.3307 35.7526 20.832V19.232H37.2246V28.192C37.2246 28.992 37.054 29.7013 36.7126 30.32C36.3713 30.9493 35.8806 31.44 35.2406 31.792C34.6113 32.144 33.8753 32.32 33.0326 32.32C31.8806 32.32 30.9206 32.048 30.1526 31.504C29.3846 30.96 28.9313 30.2187 28.7926 29.28H30.2326C30.3926 29.8133 30.7233 30.24 31.2246 30.56C31.726 30.8907 32.3286 31.056 33.0326 31.056C33.8326 31.056 34.4833 30.8053 34.9846 30.304C35.4966 29.8027 35.7526 29.0987 35.7526 28.192V26.352C35.4646 26.864 35.038 27.2907 34.4726 27.632C33.9073 27.9733 33.246 28.144 32.4886 28.144C31.71 28.144 31.0006 27.952 30.3606 27.568C29.7313 27.184 29.2353 26.6453 28.8726 25.952C28.51 25.2587 28.3286 24.4693 28.3286 23.584C28.3286 22.688 28.51 21.904 28.8726 21.232C29.2353 20.5493 29.7313 20.0213 30.3606 19.648C31.0006 19.2747 31.71 19.088 32.4886 19.088ZM35.7526 23.6C35.7526 22.9387 35.6193 22.3627 35.3526 21.872C35.086 21.3813 34.7233 21.008 34.2646 20.752C33.8166 20.4853 33.3206 20.352 32.7766 20.352C32.2326 20.352 31.7366 20.48 31.2886 20.736C30.8406 20.992 30.4833 21.3653 30.2166 21.856C29.95 22.3467 29.8166 22.9227 29.8166 23.584C29.8166 24.256 29.95 24.8427 30.2166 25.344C30.4833 25.8347 30.8406 26.2133 31.2886 26.48C31.7366 26.736 32.2326 26.864 32.7766 26.864C33.3206 26.864 33.8166 26.736 34.2646 26.48C34.7233 26.2133 35.086 25.8347 35.3526 25.344C35.6193 24.8427 35.7526 24.2613 35.7526 23.6ZM44.7028 17.808C44.4254 17.808 44.1908 17.712 43.9988 17.52C43.8068 17.328 43.7108 17.0933 43.7108 16.816C43.7108 16.5387 43.8068 16.304 43.9988 16.112C44.1908 15.92 44.4254 15.824 44.7028 15.824C44.9694 15.824 45.1934 15.92 45.3748 16.112C45.5668 16.304 45.6628 16.5387 45.6628 16.816C45.6628 17.0933 45.5668 17.328 45.3748 17.52C45.1934 17.712 44.9694 17.808 44.7028 17.808ZM45.4068 19.232V28H43.9508V19.232H45.4068ZM52.1603 19.072C53.2269 19.072 54.0909 19.3973 54.7523 20.048C55.4136 20.688 55.7443 21.616 55.7443 22.832V28H54.3043V23.04C54.3043 22.1653 54.0856 21.4987 53.6483 21.04C53.2109 20.5707 52.6136 20.336 51.8563 20.336C51.0883 20.336 50.4749 20.576 50.0163 21.056C49.5683 21.536 49.3443 22.2347 49.3443 23.152V28H47.8883V19.232H49.3443V20.48C49.6323 20.032 50.0216 19.6853 50.5123 19.44C51.0136 19.1947 51.5629 19.072 52.1603 19.072Z" fill="white"/>
</svg>
