<svg width="81" height="44" viewBox="0 0 81 44" fill="none" xmlns="http://www.w3.org/2000/svg">
<rect width="81" height="44" rx="10" fill="#4EEAC5" fill-opacity="0.96"/>
<path d="M14.768 28.112C14.032 28.112 13.3707 27.984 12.784 27.728C12.208 27.4613 11.7547 27.0987 11.424 26.64C11.0933 26.1707 10.9227 25.632 10.912 25.024H12.464C12.5173 25.5467 12.7307 25.9893 13.104 26.352C13.488 26.704 14.0427 26.88 14.768 26.88C15.4613 26.88 16.0053 26.7093 16.4 26.368C16.8053 26.016 17.008 25.568 17.008 25.024C17.008 24.5973 16.8907 24.2507 16.656 23.984C16.4213 23.7173 16.128 23.5147 15.776 23.376C15.424 23.2373 14.9493 23.088 14.352 22.928C13.616 22.736 13.024 22.544 12.576 22.352C12.1387 22.16 11.76 21.8613 11.44 21.456C11.1307 21.04 10.976 20.4853 10.976 19.792C10.976 19.184 11.1307 18.6453 11.44 18.176C11.7493 17.7067 12.1813 17.344 12.736 17.088C13.3013 16.832 13.9467 16.704 14.672 16.704C15.7173 16.704 16.5707 16.9653 17.232 17.488C17.904 18.0107 18.2827 18.704 18.368 19.568H16.768C16.7147 19.1413 16.4907 18.768 16.096 18.448C15.7013 18.1173 15.1787 17.952 14.528 17.952C13.92 17.952 13.424 18.112 13.04 18.432C12.656 18.7413 12.464 19.1787 12.464 19.744C12.464 20.1493 12.576 20.48 12.8 20.736C13.0347 20.992 13.3173 21.1893 13.648 21.328C13.9893 21.456 14.464 21.6053 15.072 21.776C15.808 21.9787 16.4 22.1813 16.848 22.384C17.296 22.576 17.68 22.88 18 23.296C18.32 23.7013 18.48 24.256 18.48 24.96C18.48 25.504 18.336 26.016 18.048 26.496C17.76 26.976 17.3333 27.3653 16.768 27.664C16.2027 27.9627 15.536 28.112 14.768 28.112ZM21.3746 17.808C21.0973 17.808 20.8626 17.712 20.6706 17.52C20.4786 17.328 20.3826 17.0933 20.3826 16.816C20.3826 16.5387 20.4786 16.304 20.6706 16.112C20.8626 15.92 21.0973 15.824 21.3746 15.824C21.6413 15.824 21.8653 15.92 22.0466 16.112C22.2386 16.304 22.3346 16.5387 22.3346 16.816C22.3346 17.0933 22.2386 17.328 22.0466 17.52C21.8653 17.712 21.6413 17.808 21.3746 17.808ZM22.0786 19.232V28H20.6226V19.232H22.0786ZM28.1761 19.088C28.9335 19.088 29.5948 19.2533 30.1601 19.584C30.7361 19.9147 31.1628 20.3307 31.4401 20.832V19.232H32.9121V28.192C32.9121 28.992 32.7415 29.7013 32.4001 30.32C32.0588 30.9493 31.5681 31.44 30.9281 31.792C30.2988 32.144 29.5628 32.32 28.7201 32.32C27.5681 32.32 26.6081 32.048 25.8401 31.504C25.0721 30.96 24.6188 30.2187 24.4801 29.28H25.9201C26.0801 29.8133 26.4108 30.24 26.9121 30.56C27.4135 30.8907 28.0161 31.056 28.7201 31.056C29.5201 31.056 30.1708 30.8053 30.6721 30.304C31.1841 29.8027 31.4401 29.0987 31.4401 28.192V26.352C31.1521 26.864 30.7255 27.2907 30.1601 27.632C29.5948 27.9733 28.9335 28.144 28.1761 28.144C27.3975 28.144 26.6881 27.952 26.0481 27.568C25.4188 27.184 24.9228 26.6453 24.5601 25.952C24.1975 25.2587 24.0161 24.4693 24.0161 23.584C24.0161 22.688 24.1975 21.904 24.5601 21.232C24.9228 20.5493 25.4188 20.0213 26.0481 19.648C26.6881 19.2747 27.3975 19.088 28.1761 19.088ZM31.4401 23.6C31.4401 22.9387 31.3068 22.3627 31.0401 21.872C30.7735 21.3813 30.4108 21.008 29.9521 20.752C29.5041 20.4853 29.0081 20.352 28.4641 20.352C27.9201 20.352 27.4241 20.48 26.9761 20.736C26.5281 20.992 26.1708 21.3653 25.9041 21.856C25.6375 22.3467 25.5041 22.9227 25.5041 23.584C25.5041 24.256 25.6375 24.8427 25.9041 25.344C26.1708 25.8347 26.5281 26.2133 26.9761 26.48C27.4241 26.736 27.9201 26.864 28.4641 26.864C29.0081 26.864 29.5041 26.736 29.9521 26.48C30.4108 26.2133 30.7735 25.8347 31.0401 25.344C31.3068 24.8427 31.4401 24.2613 31.4401 23.6ZM39.6446 19.072C40.7113 19.072 41.5753 19.3973 42.2366 20.048C42.898 20.688 43.2286 21.616 43.2286 22.832V28H41.7886V23.04C41.7886 22.1653 41.57 21.4987 41.1326 21.04C40.6953 20.5707 40.098 20.336 39.3406 20.336C38.5726 20.336 37.9593 20.576 37.5006 21.056C37.0526 21.536 36.8286 22.2347 36.8286 23.152V28H35.3726V19.232H36.8286V20.48C37.1166 20.032 37.506 19.6853 37.9966 19.44C38.498 19.1947 39.0473 19.072 39.6446 19.072ZM51.2966 16.848V23.904C51.2966 24.896 51.5366 25.632 52.0166 26.112C52.5073 26.592 53.1846 26.832 54.0486 26.832C54.902 26.832 55.5686 26.592 56.0486 26.112C56.5393 25.632 56.7846 24.896 56.7846 23.904V16.848H58.2406V23.888C58.2406 24.816 58.054 25.6 57.6806 26.24C57.3073 26.8693 56.8006 27.3387 56.1606 27.648C55.5313 27.9573 54.822 28.112 54.0326 28.112C53.2433 28.112 52.5286 27.9573 51.8886 27.648C51.2593 27.3387 50.758 26.8693 50.3846 26.24C50.022 25.6 49.8406 24.816 49.8406 23.888V16.848H51.2966ZM62.1255 20.848C62.4135 20.3467 62.8402 19.9307 63.4055 19.6C63.9815 19.2587 64.6482 19.088 65.4055 19.088C66.1842 19.088 66.8882 19.2747 67.5175 19.648C68.1575 20.0213 68.6588 20.5493 69.0215 21.232C69.3842 21.904 69.5655 22.688 69.5655 23.584C69.5655 24.4693 69.3842 25.2587 69.0215 25.952C68.6588 26.6453 68.1575 27.184 67.5175 27.568C66.8882 27.952 66.1842 28.144 65.4055 28.144C64.6588 28.144 63.9975 27.9787 63.4215 27.648C62.8562 27.3067 62.4242 26.8853 62.1255 26.384V32.16H60.6695V19.232H62.1255V20.848ZM68.0775 23.584C68.0775 22.9227 67.9442 22.3467 67.6775 21.856C67.4108 21.3653 67.0482 20.992 66.5895 20.736C66.1415 20.48 65.6455 20.352 65.1015 20.352C64.5682 20.352 64.0722 20.4853 63.6135 20.752C63.1655 21.008 62.8028 21.3867 62.5255 21.888C62.2588 22.3787 62.1255 22.9493 62.1255 23.6C62.1255 24.2613 62.2588 24.8427 62.5255 25.344C62.8028 25.8347 63.1655 26.2133 63.6135 26.48C64.0722 26.736 64.5682 26.864 65.1015 26.864C65.6455 26.864 66.1415 26.736 66.5895 26.48C67.0482 26.2133 67.4108 25.8347 67.6775 25.344C67.9442 24.8427 68.0775 24.256 68.0775 23.584Z" fill="#605555" fill-opacity="0.5"/>
</svg>
