<svg width="74" height="44" viewBox="0 0 74 44" fill="none" xmlns="http://www.w3.org/2000/svg">
<rect x="0.5" width="73" height="44" rx="10" fill="#4EEAC5" fill-opacity="0.96"/>
<path d="M15.268 28.112C14.532 28.112 13.8707 27.984 13.284 27.728C12.708 27.4613 12.2547 27.0987 11.924 26.64C11.5933 26.1707 11.4227 25.632 11.412 25.024H12.964C13.0173 25.5467 13.2307 25.9893 13.604 26.352C13.988 26.704 14.5427 26.88 15.268 26.88C15.9613 26.88 16.5053 26.7093 16.9 26.368C17.3053 26.016 17.508 25.568 17.508 25.024C17.508 24.5973 17.3907 24.2507 17.156 23.984C16.9213 23.7173 16.628 23.5147 16.276 23.376C15.924 23.2373 15.4493 23.088 14.852 22.928C14.116 22.736 13.524 22.544 13.076 22.352C12.6387 22.16 12.26 21.8613 11.94 21.456C11.6307 21.04 11.476 20.4853 11.476 19.792C11.476 19.184 11.6307 18.6453 11.94 18.176C12.2493 17.7067 12.6813 17.344 13.236 17.088C13.8013 16.832 14.4467 16.704 15.172 16.704C16.2173 16.704 17.0707 16.9653 17.732 17.488C18.404 18.0107 18.7827 18.704 18.868 19.568H17.268C17.2147 19.1413 16.9907 18.768 16.596 18.448C16.2013 18.1173 15.6787 17.952 15.028 17.952C14.42 17.952 13.924 18.112 13.54 18.432C13.156 18.7413 12.964 19.1787 12.964 19.744C12.964 20.1493 13.076 20.48 13.3 20.736C13.5347 20.992 13.8173 21.1893 14.148 21.328C14.4893 21.456 14.964 21.6053 15.572 21.776C16.308 21.9787 16.9 22.1813 17.348 22.384C17.796 22.576 18.18 22.88 18.5 23.296C18.82 23.7013 18.98 24.256 18.98 24.96C18.98 25.504 18.836 26.016 18.548 26.496C18.26 26.976 17.8333 27.3653 17.268 27.664C16.7027 27.9627 16.036 28.112 15.268 28.112ZM21.8746 17.808C21.5973 17.808 21.3626 17.712 21.1706 17.52C20.9786 17.328 20.8826 17.0933 20.8826 16.816C20.8826 16.5387 20.9786 16.304 21.1706 16.112C21.3626 15.92 21.5973 15.824 21.8746 15.824C22.1413 15.824 22.3653 15.92 22.5466 16.112C22.7386 16.304 22.8346 16.5387 22.8346 16.816C22.8346 17.0933 22.7386 17.328 22.5466 17.52C22.3653 17.712 22.1413 17.808 21.8746 17.808ZM22.5786 19.232V28H21.1226V19.232H22.5786ZM28.6761 19.088C29.4335 19.088 30.0948 19.2533 30.6601 19.584C31.2361 19.9147 31.6628 20.3307 31.9401 20.832V19.232H33.4121V28.192C33.4121 28.992 33.2415 29.7013 32.9001 30.32C32.5588 30.9493 32.0681 31.44 31.4281 31.792C30.7988 32.144 30.0628 32.32 29.2201 32.32C28.0681 32.32 27.1081 32.048 26.3401 31.504C25.5721 30.96 25.1188 30.2187 24.9801 29.28H26.4201C26.5801 29.8133 26.9108 30.24 27.4121 30.56C27.9135 30.8907 28.5161 31.056 29.2201 31.056C30.0201 31.056 30.6708 30.8053 31.1721 30.304C31.6841 29.8027 31.9401 29.0987 31.9401 28.192V26.352C31.6521 26.864 31.2255 27.2907 30.6601 27.632C30.0948 27.9733 29.4335 28.144 28.6761 28.144C27.8975 28.144 27.1881 27.952 26.5481 27.568C25.9188 27.184 25.4228 26.6453 25.0601 25.952C24.6975 25.2587 24.5161 24.4693 24.5161 23.584C24.5161 22.688 24.6975 21.904 25.0601 21.232C25.4228 20.5493 25.9188 20.0213 26.5481 19.648C27.1881 19.2747 27.8975 19.088 28.6761 19.088ZM31.9401 23.6C31.9401 22.9387 31.8068 22.3627 31.5401 21.872C31.2735 21.3813 30.9108 21.008 30.4521 20.752C30.0041 20.4853 29.5081 20.352 28.9641 20.352C28.4201 20.352 27.9241 20.48 27.4761 20.736C27.0281 20.992 26.6708 21.3653 26.4041 21.856C26.1375 22.3467 26.0041 22.9227 26.0041 23.584C26.0041 24.256 26.1375 24.8427 26.4041 25.344C26.6708 25.8347 27.0281 26.2133 27.4761 26.48C27.9241 26.736 28.4201 26.864 28.9641 26.864C29.5081 26.864 30.0041 26.736 30.4521 26.48C30.9108 26.2133 31.2735 25.8347 31.5401 25.344C31.8068 24.8427 31.9401 24.2613 31.9401 23.6ZM40.1446 19.072C41.2113 19.072 42.0753 19.3973 42.7366 20.048C43.398 20.688 43.7286 21.616 43.7286 22.832V28H42.2886V23.04C42.2886 22.1653 42.07 21.4987 41.6326 21.04C41.1953 20.5707 40.598 20.336 39.8406 20.336C39.0726 20.336 38.4593 20.576 38.0006 21.056C37.5526 21.536 37.3286 22.2347 37.3286 23.152V28H35.8726V19.232H37.3286V20.48C37.6166 20.032 38.006 19.6853 38.4966 19.44C38.998 19.1947 39.5473 19.072 40.1446 19.072ZM51.8286 16.848V28H50.3726V16.848H51.8286ZM58.5821 19.072C59.6488 19.072 60.5128 19.3973 61.1741 20.048C61.8355 20.688 62.1661 21.616 62.1661 22.832V28H60.7261V23.04C60.7261 22.1653 60.5075 21.4987 60.0701 21.04C59.6328 20.5707 59.0355 20.336 58.2781 20.336C57.5101 20.336 56.8968 20.576 56.4381 21.056C55.9901 21.536 55.7661 22.2347 55.7661 23.152V28H54.3101V19.232H55.7661V20.48C56.0541 20.032 56.4435 19.6853 56.9341 19.44C57.4355 19.1947 57.9848 19.072 58.5821 19.072Z" fill="#605555" fill-opacity="0.5"/>
</svg>
